<?xml version="1.0" encoding="iso-8859-1"?>
<!-- Generator: Adobe Illustrator 19.0.0, SVG Export Plug-In . SVG Version: 6.00 Build 0)  -->
<svg xmlns="http://www.w3.org/2000/svg" xmlns:xlink="http://www.w3.org/1999/xlink" version="1.1" id="Capa_1" x="0px" y="0px" viewBox="0 0 480 480" style="enable-background:new 0 0 480 480;" xml:space="preserve" width="512px" height="512px">
<g>
	<g>
		<path d="M408,0H72C58.745,0,48,10.745,48,24v432c0,13.255,10.745,24,24,24h336c13.255,0,24-10.745,24-24V24    C432,10.745,421.255,0,408,0z M416,456c0,4.418-3.582,8-8,8H72c-4.418,0-8-3.582-8-8V24c0-4.418,3.582-8,8-8h336    c4.418,0,8,3.582,8,8V456z" fill="#FFFFFF"/>
	</g>
</g>
<g>
	<g>
		<path d="M384,32H96c-4.418,0-8,3.582-8,8v112c0,4.418,3.582,8,8,8h288c4.418,0,8-3.582,8-8V40C392,35.582,388.418,32,384,32z     M376,144H104V48h272V144z" fill="#FFFFFF"/>
	</g>
</g>
<g>
	<g>
		<path d="M160,176H96c-4.418,0-8,3.582-8,8v64c0,4.418,3.582,8,8,8h64c4.418,0,8-3.582,8-8v-64C168,179.582,164.418,176,160,176z     M152,240h-48v-48h48V240z" fill="#FFFFFF"/>
	</g>
</g>
<g>
	<g>
		<path d="M272,176h-64c-4.418,0-8,3.582-8,8v64c0,4.418,3.582,8,8,8h64c4.418,0,8-3.582,8-8v-64C280,179.582,276.418,176,272,176z     M264,240h-48v-48h48V240z" fill="#FFFFFF"/>
	</g>
</g>
<g>
	<g>
		<path d="M384,176h-64c-4.418,0-8,3.582-8,8v64c0,4.418,3.582,8,8,8h64c4.418,0,8-3.582,8-8v-64C392,179.582,388.418,176,384,176z     M376,240h-48v-48h48V240z" fill="#FFFFFF"/>
	</g>
</g>
<g>
	<g>
		<path d="M160,272H96c-4.418,0-8,3.582-8,8v64c0,4.418,3.582,8,8,8h64c4.418,0,8-3.582,8-8v-64C168,275.582,164.418,272,160,272z     M152,336h-48v-48h48V336z" fill="#FFFFFF"/>
	</g>
</g>
<g>
	<g>
		<path d="M272,272h-64c-4.418,0-8,3.582-8,8v64c0,4.418,3.582,8,8,8h64c4.418,0,8-3.582,8-8v-64C280,275.582,276.418,272,272,272z     M264,336h-48v-48h48V336z" fill="#FFFFFF"/>
	</g>
</g>
<g>
	<g>
		<path d="M384,272h-64c-4.418,0-8,3.582-8,8v64c0,4.418,3.582,8,8,8h64c4.418,0,8-3.582,8-8v-64C392,275.582,388.418,272,384,272z     M376,336h-48v-48h48V336z" fill="#FFFFFF"/>
	</g>
</g>
<g>
	<g>
		<path d="M160,368H96c-4.418,0-8,3.582-8,8v64c0,4.418,3.582,8,8,8h64c4.418,0,8-3.582,8-8v-64C168,371.582,164.418,368,160,368z     M152,432h-48v-48h48V432z" fill="#FFFFFF"/>
	</g>
</g>
<g>
	<g>
		<path d="M272,368h-64c-4.418,0-8,3.582-8,8v64c0,4.418,3.582,8,8,8h64c4.418,0,8-3.582,8-8v-64C280,371.582,276.418,368,272,368z     M264,432h-48v-48h48V432z" fill="#FFFFFF"/>
	</g>
</g>
<g>
	<g>
		<path d="M384,368h-64c-4.418,0-8,3.582-8,8v64c0,4.418,3.582,8,8,8h64c4.418,0,8-3.582,8-8v-64C392,371.582,388.418,368,384,368z     M376,432h-48v-48h48V432z" fill="#FFFFFF"/>
	</g>
</g>
<g>
	<g>
		<rect x="248" y="112" width="16" height="16" fill="#FFFFFF"/>
	</g>
</g>
<g>
	<g>
		<rect x="280" y="112" width="16" height="16" fill="#FFFFFF"/>
	</g>
</g>
<g>
	<g>
		<rect x="312" y="112" width="16" height="16" fill="#FFFFFF"/>
	</g>
</g>
<g>
	<g>
		<rect x="344" y="112" width="16" height="16" fill="#FFFFFF"/>
	</g>
</g>
<g>
</g>
<g>
</g>
<g>
</g>
<g>
</g>
<g>
</g>
<g>
</g>
<g>
</g>
<g>
</g>
<g>
</g>
<g>
</g>
<g>
</g>
<g>
</g>
<g>
</g>
<g>
</g>
<g>
</g>
</svg>
